<mxfile host="Electron" modified="2023-04-30T16:28:12.782Z" agent="Mozilla/5.0 (Windows NT 10.0; Win64; x64) AppleWebKit/537.36 (KHTML, like Gecko) draw.io/21.1.2 Chrome/106.0.5249.199 Electron/21.4.3 Safari/537.36" etag="TjaTaTZzNlCy4WshzGI4" version="21.1.2" type="device">
  <diagram name="Page-1" id="UnYJ4b3-RVH2woZVWHlp">
    <mxGraphModel dx="1666" dy="962" grid="1" gridSize="10" guides="1" tooltips="1" connect="1" arrows="1" fold="1" page="1" pageScale="1" pageWidth="5000" pageHeight="5000" math="0" shadow="0">
      <root>
        <mxCell id="0" />
        <mxCell id="1" parent="0" />
        <mxCell id="g6rydhTcyriPLiJuR2jw-1" value="&lt;b&gt;Petroleum&lt;br/&gt;Company System&amp;nbsp;&lt;/b&gt;" style="ellipse;whiteSpace=wrap;html=1;aspect=fixed;" vertex="1" parent="1">
          <mxGeometry x="500" y="320" width="340" height="340" as="geometry" />
        </mxCell>
        <mxCell id="g6rydhTcyriPLiJuR2jw-3" value="Employee" style="rounded=0;whiteSpace=wrap;html=1;" vertex="1" parent="1">
          <mxGeometry x="610" y="160" width="120" height="60" as="geometry" />
        </mxCell>
        <mxCell id="g6rydhTcyriPLiJuR2jw-6" value="External&amp;nbsp;&lt;br&gt;Company" style="rounded=0;whiteSpace=wrap;html=1;" vertex="1" parent="1">
          <mxGeometry x="320" y="430" width="70" height="120" as="geometry" />
        </mxCell>
        <mxCell id="g6rydhTcyriPLiJuR2jw-8" value="Company Manager" style="rounded=0;whiteSpace=wrap;html=1;" vertex="1" parent="1">
          <mxGeometry x="610" y="760" width="120" height="60" as="geometry" />
        </mxCell>
        <mxCell id="g6rydhTcyriPLiJuR2jw-9" value="Department" style="rounded=0;whiteSpace=wrap;html=1;" vertex="1" parent="1">
          <mxGeometry x="950" y="430" width="70" height="120" as="geometry" />
        </mxCell>
        <mxCell id="g6rydhTcyriPLiJuR2jw-12" value="" style="endArrow=classic;html=1;rounded=0;exitX=0.25;exitY=1;exitDx=0;exitDy=0;entryX=0.409;entryY=0.004;entryDx=0;entryDy=0;entryPerimeter=0;" edge="1" parent="1" source="g6rydhTcyriPLiJuR2jw-3" target="g6rydhTcyriPLiJuR2jw-1">
          <mxGeometry width="50" height="50" relative="1" as="geometry">
            <mxPoint x="680" y="390" as="sourcePoint" />
            <mxPoint x="730" y="340" as="targetPoint" />
          </mxGeometry>
        </mxCell>
        <mxCell id="g6rydhTcyriPLiJuR2jw-13" value="Report" style="edgeLabel;html=1;align=center;verticalAlign=middle;resizable=0;points=[];" vertex="1" connectable="0" parent="g6rydhTcyriPLiJuR2jw-12">
          <mxGeometry x="-0.3621" y="-1" relative="1" as="geometry">
            <mxPoint as="offset" />
          </mxGeometry>
        </mxCell>
        <mxCell id="g6rydhTcyriPLiJuR2jw-14" value="" style="endArrow=classic;html=1;rounded=0;entryX=0.75;entryY=1;entryDx=0;entryDy=0;exitX=0.589;exitY=0.008;exitDx=0;exitDy=0;exitPerimeter=0;" edge="1" parent="1" source="g6rydhTcyriPLiJuR2jw-1" target="g6rydhTcyriPLiJuR2jw-3">
          <mxGeometry width="50" height="50" relative="1" as="geometry">
            <mxPoint x="650" y="240" as="sourcePoint" />
            <mxPoint x="700" y="190" as="targetPoint" />
          </mxGeometry>
        </mxCell>
        <mxCell id="g6rydhTcyriPLiJuR2jw-15" value="Report" style="edgeLabel;html=1;align=center;verticalAlign=middle;resizable=0;points=[];" vertex="1" connectable="0" parent="g6rydhTcyriPLiJuR2jw-14">
          <mxGeometry x="0.4476" relative="1" as="geometry">
            <mxPoint y="2" as="offset" />
          </mxGeometry>
        </mxCell>
        <mxCell id="g6rydhTcyriPLiJuR2jw-16" value="" style="endArrow=classic;html=1;rounded=0;exitX=0;exitY=1;exitDx=0;exitDy=0;entryX=0.322;entryY=0.031;entryDx=0;entryDy=0;entryPerimeter=0;" edge="1" parent="1" source="g6rydhTcyriPLiJuR2jw-3" target="g6rydhTcyriPLiJuR2jw-1">
          <mxGeometry width="50" height="50" relative="1" as="geometry">
            <mxPoint x="650" y="290" as="sourcePoint" />
            <mxPoint x="700" y="240" as="targetPoint" />
          </mxGeometry>
        </mxCell>
        <mxCell id="g6rydhTcyriPLiJuR2jw-18" value="Request" style="edgeLabel;html=1;align=center;verticalAlign=middle;resizable=0;points=[];" vertex="1" connectable="0" parent="g6rydhTcyriPLiJuR2jw-16">
          <mxGeometry x="0.0898" relative="1" as="geometry">
            <mxPoint as="offset" />
          </mxGeometry>
        </mxCell>
        <mxCell id="g6rydhTcyriPLiJuR2jw-17" value="" style="endArrow=classic;html=1;rounded=0;entryX=1;entryY=1;entryDx=0;entryDy=0;exitX=0.676;exitY=0.029;exitDx=0;exitDy=0;exitPerimeter=0;" edge="1" parent="1" source="g6rydhTcyriPLiJuR2jw-1" target="g6rydhTcyriPLiJuR2jw-3">
          <mxGeometry width="50" height="50" relative="1" as="geometry">
            <mxPoint x="650" y="290" as="sourcePoint" />
            <mxPoint x="700" y="240" as="targetPoint" />
          </mxGeometry>
        </mxCell>
        <mxCell id="g6rydhTcyriPLiJuR2jw-19" value="Request&lt;br&gt;Validation" style="edgeLabel;html=1;align=center;verticalAlign=middle;resizable=0;points=[];" vertex="1" connectable="0" parent="g6rydhTcyriPLiJuR2jw-17">
          <mxGeometry x="-0.232" relative="1" as="geometry">
            <mxPoint as="offset" />
          </mxGeometry>
        </mxCell>
        <mxCell id="g6rydhTcyriPLiJuR2jw-20" value="" style="endArrow=classic;html=1;rounded=0;exitX=1;exitY=0.25;exitDx=0;exitDy=0;entryX=0.004;entryY=0.412;entryDx=0;entryDy=0;entryPerimeter=0;" edge="1" parent="1" source="g6rydhTcyriPLiJuR2jw-6" target="g6rydhTcyriPLiJuR2jw-1">
          <mxGeometry width="50" height="50" relative="1" as="geometry">
            <mxPoint x="480" y="490" as="sourcePoint" />
            <mxPoint x="530" y="440" as="targetPoint" />
          </mxGeometry>
        </mxCell>
        <mxCell id="g6rydhTcyriPLiJuR2jw-23" value="Request Validation" style="edgeLabel;html=1;align=center;verticalAlign=middle;resizable=0;points=[];" vertex="1" connectable="0" parent="g6rydhTcyriPLiJuR2jw-20">
          <mxGeometry x="-0.2968" relative="1" as="geometry">
            <mxPoint x="11" as="offset" />
          </mxGeometry>
        </mxCell>
        <mxCell id="g6rydhTcyriPLiJuR2jw-21" value="" style="endArrow=classic;html=1;rounded=0;entryX=1;entryY=0.75;entryDx=0;entryDy=0;exitX=0.004;exitY=0.588;exitDx=0;exitDy=0;exitPerimeter=0;" edge="1" parent="1" source="g6rydhTcyriPLiJuR2jw-1" target="g6rydhTcyriPLiJuR2jw-6">
          <mxGeometry width="50" height="50" relative="1" as="geometry">
            <mxPoint x="480" y="490" as="sourcePoint" />
            <mxPoint x="530" y="440" as="targetPoint" />
          </mxGeometry>
        </mxCell>
        <mxCell id="g6rydhTcyriPLiJuR2jw-22" value="Request" style="edgeLabel;html=1;align=center;verticalAlign=middle;resizable=0;points=[];" vertex="1" connectable="0" parent="g6rydhTcyriPLiJuR2jw-21">
          <mxGeometry x="-0.128" y="-1" relative="1" as="geometry">
            <mxPoint as="offset" />
          </mxGeometry>
        </mxCell>
        <mxCell id="g6rydhTcyriPLiJuR2jw-24" value="" style="endArrow=classic;html=1;rounded=0;exitX=1;exitY=0;exitDx=0;exitDy=0;entryX=0.676;entryY=0.971;entryDx=0;entryDy=0;entryPerimeter=0;" edge="1" parent="1" source="g6rydhTcyriPLiJuR2jw-8" target="g6rydhTcyriPLiJuR2jw-1">
          <mxGeometry width="50" height="50" relative="1" as="geometry">
            <mxPoint x="700" y="710" as="sourcePoint" />
            <mxPoint x="750" y="660" as="targetPoint" />
          </mxGeometry>
        </mxCell>
        <mxCell id="g6rydhTcyriPLiJuR2jw-25" value="Request &lt;br&gt;Validation" style="edgeLabel;html=1;align=center;verticalAlign=middle;resizable=0;points=[];" vertex="1" connectable="0" parent="g6rydhTcyriPLiJuR2jw-24">
          <mxGeometry x="0.0886" y="-1" relative="1" as="geometry">
            <mxPoint x="-1" as="offset" />
          </mxGeometry>
        </mxCell>
        <mxCell id="g6rydhTcyriPLiJuR2jw-26" value="" style="endArrow=classic;html=1;rounded=0;entryX=0;entryY=0;entryDx=0;entryDy=0;exitX=0.324;exitY=0.971;exitDx=0;exitDy=0;exitPerimeter=0;" edge="1" parent="1" source="g6rydhTcyriPLiJuR2jw-1" target="g6rydhTcyriPLiJuR2jw-8">
          <mxGeometry width="50" height="50" relative="1" as="geometry">
            <mxPoint x="630" y="690" as="sourcePoint" />
            <mxPoint x="720" y="670" as="targetPoint" />
          </mxGeometry>
        </mxCell>
        <mxCell id="g6rydhTcyriPLiJuR2jw-27" value="Request" style="edgeLabel;html=1;align=center;verticalAlign=middle;resizable=0;points=[];" vertex="1" connectable="0" parent="g6rydhTcyriPLiJuR2jw-26">
          <mxGeometry x="-0.3872" relative="1" as="geometry">
            <mxPoint as="offset" />
          </mxGeometry>
        </mxCell>
        <mxCell id="g6rydhTcyriPLiJuR2jw-28" value="" style="endArrow=classic;html=1;rounded=0;exitX=0;exitY=1;exitDx=0;exitDy=0;entryX=0.971;entryY=0.676;entryDx=0;entryDy=0;entryPerimeter=0;" edge="1" parent="1" source="g6rydhTcyriPLiJuR2jw-9" target="g6rydhTcyriPLiJuR2jw-1">
          <mxGeometry width="50" height="50" relative="1" as="geometry">
            <mxPoint x="770" y="490" as="sourcePoint" />
            <mxPoint x="820" y="440" as="targetPoint" />
          </mxGeometry>
        </mxCell>
        <mxCell id="g6rydhTcyriPLiJuR2jw-32" value="Request" style="edgeLabel;html=1;align=center;verticalAlign=middle;resizable=0;points=[];" vertex="1" connectable="0" parent="g6rydhTcyriPLiJuR2jw-28">
          <mxGeometry x="0.178" relative="1" as="geometry">
            <mxPoint as="offset" />
          </mxGeometry>
        </mxCell>
        <mxCell id="g6rydhTcyriPLiJuR2jw-29" value="" style="endArrow=classic;html=1;rounded=0;exitX=0;exitY=0.75;exitDx=0;exitDy=0;entryX=0.994;entryY=0.588;entryDx=0;entryDy=0;entryPerimeter=0;" edge="1" parent="1" source="g6rydhTcyriPLiJuR2jw-9" target="g6rydhTcyriPLiJuR2jw-1">
          <mxGeometry width="50" height="50" relative="1" as="geometry">
            <mxPoint x="770" y="490" as="sourcePoint" />
            <mxPoint x="890" y="510" as="targetPoint" />
          </mxGeometry>
        </mxCell>
        <mxCell id="g6rydhTcyriPLiJuR2jw-34" value="Task" style="edgeLabel;html=1;align=center;verticalAlign=middle;resizable=0;points=[];" vertex="1" connectable="0" parent="g6rydhTcyriPLiJuR2jw-29">
          <mxGeometry x="-0.0742" relative="1" as="geometry">
            <mxPoint as="offset" />
          </mxGeometry>
        </mxCell>
        <mxCell id="g6rydhTcyriPLiJuR2jw-31" value="" style="endArrow=classic;html=1;rounded=0;exitX=0;exitY=0.75;exitDx=0;exitDy=0;entryX=0.984;entryY=0.632;entryDx=0;entryDy=0;entryPerimeter=0;" edge="1" parent="1" target="g6rydhTcyriPLiJuR2jw-1">
          <mxGeometry width="50" height="50" relative="1" as="geometry">
            <mxPoint x="950" y="535" as="sourcePoint" />
            <mxPoint x="840" y="535" as="targetPoint" />
          </mxGeometry>
        </mxCell>
        <mxCell id="g6rydhTcyriPLiJuR2jw-33" value="Request Validation" style="edgeLabel;html=1;align=center;verticalAlign=middle;resizable=0;points=[];" vertex="1" connectable="0" parent="g6rydhTcyriPLiJuR2jw-31">
          <mxGeometry x="0.4227" y="-1" relative="1" as="geometry">
            <mxPoint x="32" as="offset" />
          </mxGeometry>
        </mxCell>
        <mxCell id="g6rydhTcyriPLiJuR2jw-36" value="" style="endArrow=classic;html=1;rounded=0;exitX=0;exitY=0.75;exitDx=0;exitDy=0;entryX=1;entryY=0.588;entryDx=0;entryDy=0;entryPerimeter=0;" edge="1" parent="1">
          <mxGeometry width="50" height="50" relative="1" as="geometry">
            <mxPoint x="950" y="505" as="sourcePoint" />
            <mxPoint x="840" y="505" as="targetPoint" />
          </mxGeometry>
        </mxCell>
        <mxCell id="g6rydhTcyriPLiJuR2jw-37" value="Report" style="edgeLabel;html=1;align=center;verticalAlign=middle;resizable=0;points=[];" vertex="1" connectable="0" parent="g6rydhTcyriPLiJuR2jw-36">
          <mxGeometry x="-0.0742" relative="1" as="geometry">
            <mxPoint as="offset" />
          </mxGeometry>
        </mxCell>
        <mxCell id="g6rydhTcyriPLiJuR2jw-38" value="" style="endArrow=classic;html=1;rounded=0;exitX=1;exitY=0.5;exitDx=0;exitDy=0;entryX=0;entryY=0.5;entryDx=0;entryDy=0;" edge="1" parent="1" source="g6rydhTcyriPLiJuR2jw-1" target="g6rydhTcyriPLiJuR2jw-9">
          <mxGeometry width="50" height="50" relative="1" as="geometry">
            <mxPoint x="900" y="510" as="sourcePoint" />
            <mxPoint x="948" y="490" as="targetPoint" />
          </mxGeometry>
        </mxCell>
        <mxCell id="g6rydhTcyriPLiJuR2jw-39" value="Request" style="edgeLabel;html=1;align=center;verticalAlign=middle;resizable=0;points=[];" vertex="1" connectable="0" parent="g6rydhTcyriPLiJuR2jw-38">
          <mxGeometry x="-0.0787" y="1" relative="1" as="geometry">
            <mxPoint as="offset" />
          </mxGeometry>
        </mxCell>
        <mxCell id="g6rydhTcyriPLiJuR2jw-43" value="" style="endArrow=classic;html=1;rounded=0;exitX=1;exitY=0.5;exitDx=0;exitDy=0;entryX=0;entryY=0.5;entryDx=0;entryDy=0;" edge="1" parent="1">
          <mxGeometry width="50" height="50" relative="1" as="geometry">
            <mxPoint x="840" y="475" as="sourcePoint" />
            <mxPoint x="950" y="475" as="targetPoint" />
          </mxGeometry>
        </mxCell>
        <mxCell id="g6rydhTcyriPLiJuR2jw-44" value="Request Validation" style="edgeLabel;html=1;align=center;verticalAlign=middle;resizable=0;points=[];" vertex="1" connectable="0" parent="g6rydhTcyriPLiJuR2jw-43">
          <mxGeometry x="-0.0787" y="1" relative="1" as="geometry">
            <mxPoint as="offset" />
          </mxGeometry>
        </mxCell>
        <mxCell id="g6rydhTcyriPLiJuR2jw-45" value="" style="endArrow=classic;html=1;rounded=0;exitX=0.994;exitY=0.412;exitDx=0;exitDy=0;entryX=0;entryY=0.25;entryDx=0;entryDy=0;exitPerimeter=0;" edge="1" parent="1" source="g6rydhTcyriPLiJuR2jw-1" target="g6rydhTcyriPLiJuR2jw-9">
          <mxGeometry width="50" height="50" relative="1" as="geometry">
            <mxPoint x="910" y="420" as="sourcePoint" />
            <mxPoint x="860" y="470" as="targetPoint" />
          </mxGeometry>
        </mxCell>
        <mxCell id="g6rydhTcyriPLiJuR2jw-46" value="Report" style="edgeLabel;html=1;align=center;verticalAlign=middle;resizable=0;points=[];" vertex="1" connectable="0" parent="g6rydhTcyriPLiJuR2jw-45">
          <mxGeometry x="-0.1365" relative="1" as="geometry">
            <mxPoint as="offset" />
          </mxGeometry>
        </mxCell>
        <mxCell id="g6rydhTcyriPLiJuR2jw-47" value="" style="endArrow=classic;html=1;rounded=0;entryX=0.971;entryY=0.324;entryDx=0;entryDy=0;entryPerimeter=0;exitX=0;exitY=0;exitDx=0;exitDy=0;" edge="1" parent="1" source="g6rydhTcyriPLiJuR2jw-9" target="g6rydhTcyriPLiJuR2jw-1">
          <mxGeometry width="50" height="50" relative="1" as="geometry">
            <mxPoint x="860" y="430" as="sourcePoint" />
            <mxPoint x="950" y="430" as="targetPoint" />
          </mxGeometry>
        </mxCell>
        <mxCell id="g6rydhTcyriPLiJuR2jw-48" value="Shedual" style="edgeLabel;html=1;align=center;verticalAlign=middle;resizable=0;points=[];" vertex="1" connectable="0" parent="g6rydhTcyriPLiJuR2jw-47">
          <mxGeometry x="-0.0656" relative="1" as="geometry">
            <mxPoint x="-4" as="offset" />
          </mxGeometry>
        </mxCell>
        <mxCell id="g6rydhTcyriPLiJuR2jw-50" value="" style="endArrow=classic;html=1;rounded=0;exitX=-0.009;exitY=0.126;exitDx=0;exitDy=0;exitPerimeter=0;" edge="1" parent="1" source="g6rydhTcyriPLiJuR2jw-9">
          <mxGeometry width="50" height="50" relative="1" as="geometry">
            <mxPoint x="945" y="445" as="sourcePoint" />
            <mxPoint x="835" y="445" as="targetPoint" />
          </mxGeometry>
        </mxCell>
        <mxCell id="g6rydhTcyriPLiJuR2jw-51" value="Team" style="edgeLabel;html=1;align=center;verticalAlign=middle;resizable=0;points=[];" vertex="1" connectable="0" parent="g6rydhTcyriPLiJuR2jw-50">
          <mxGeometry x="-0.0656" relative="1" as="geometry">
            <mxPoint x="-4" as="offset" />
          </mxGeometry>
        </mxCell>
      </root>
    </mxGraphModel>
  </diagram>
</mxfile>
